<?xml version="1.0" ?><svg height="512" id="svg2" version="1.1" width="512" xmlns="http://www.w3.org/2000/svg" xmlns:cc="http://creativecommons.org/ns#" xmlns:dc="http://purl.org/dc/elements/1.1/" xmlns:inkscape="http://www.inkscape.org/namespaces/inkscape" xmlns:rdf="http://www.w3.org/1999/02/22-rdf-syntax-ns#" xmlns:sodipodi="http://sodipodi.sourceforge.net/DTD/sodipodi-0.dtd" xmlns:svg="http://www.w3.org/2000/svg"><defs id="defs4"/><g id="layer1" transform="translate(0,-540.3622)"><path d="m 254.68748,594.11338 c -6.05679,0.26486 -12.01753,2.41912 -16.84422,6.08763 -4.82669,3.6685 -8.49798,8.83503 -10.37453,14.59987 l -33.78125,104 c -0.58664,1.80274 -2.09119,3.85463 -3.625,4.96875 -1.53374,1.11407 -3.97894,1.93705 -5.875,1.9375 l -109.343748,0 c -6.276311,0.01 -12.53359,2.05072 -17.608356,5.74381 -5.074765,3.69309 -8.941267,9.01942 -10.880568,14.98862 -1.939301,5.96919 -1.941559,12.55096 -0.0064,18.52149 1.935204,5.97052 5.79805,11.29951 10.87028,14.99608 l 88.437502,64.25 c 1.53524,1.11502 3.03898,3.19532 3.625,5 0.58601,1.80469 0.5873,4.38323 0,6.1875 -1e-5,0.0104 -1e-5,0.0208 0,0.0312 l -33.78121,103.9688 c -1.93395,5.97351 -1.92866,12.55805 0.0149,18.52845 1.94353,5.9704 5.81543,11.2963 10.89523,14.9866 5.0798,3.6904 11.34168,5.7264 17.62045,5.7293 6.27877,0 12.54252,-2.0274 17.6257,-5.7131 l 88.46875,-64.28125 c 1.53402,-1.11353 3.97943,-1.90625 5.875,-1.90625 1.89557,0 4.34098,0.79272 5.875,1.90625 l 88.46875,64.28125 c 5.08318,3.6857 11.34693,5.716 17.6257,5.7131 6.27877,0 12.54065,-2.0389 17.62045,-5.7293 5.0798,-3.6903 8.9517,-9.0162 10.89523,-14.9866 1.94354,-5.9704 1.94882,-12.55494 0.0149,-18.52845 L 362.71873,855.42588 c 1e-5,-0.0104 1e-5,-0.0208 0,-0.0312 -0.58723,-1.80392 -0.586,-4.38287 0,-6.1875 0.58602,-1.80468 2.08976,-3.88498 3.625,-5 l 88.4375,-64.25 c 5.07223,-3.69657 8.93508,-9.02556 10.87028,-14.99608 1.9352,-5.97053 1.93294,-12.5523 -0.006,-18.52149 -1.9393,-5.9692 -5.8058,-11.29553 -10.88056,-14.98862 -5.07477,-3.69309 -11.33205,-5.7342 -17.60836,-5.74381 l -109.3125,0 c -1.89577,-4.4e-4 -4.34116,-0.82336 -5.875,-1.9375 -1.5338,-1.11412 -3.03836,-3.16601 -3.625,-4.96875 l -33.8125,-104 c -2.01198,-6.18102 -6.09457,-11.66812 -11.4368,-15.37133 -5.34223,-3.70321 -11.91295,-5.60093 -18.40695,-5.31622 z" id="path3766" style="font-size:medium;font-style:normal;font-variant:normal;font-weight:normal;font-stretch:normal;text-indent:0;text-align:start;text-decoration:none;line-height:normal;letter-spacing:normal;word-spacing:normal;text-transform:none;direction:ltr;block-progression:tb;writing-mode:lr-tb;text-anchor:start;baseline-shift:baseline;color:#000000;fill:#222222;fill-opacity:1;fill-rule:nonzero;stroke:none;stroke-width:60;marker:none;visibility:visible;display:inline;overflow:visible;enable-background:accumulate;font-family:Sans;-inkscape-font-specification:Sans"/></g></svg>